<?xml version="1.0" encoding="utf-8"?>
<!-- Generator: Adobe Illustrator 16.0.4, SVG Export Plug-In . SVG Version: 6.00 Build 0)  -->
<!DOCTYPE svg PUBLIC "-//W3C//DTD SVG 1.1//EN" "http://www.w3.org/Graphics/SVG/1.1/DTD/svg11.dtd">
<svg version="1.1" id="Layer_1" xmlns="http://www.w3.org/2000/svg" xmlns:xlink="http://www.w3.org/1999/xlink" x="0px" y="0px"
     width="487.211px" height="642.045px" viewBox="0 0 487.211 642.045" enable-background="new 0 0 487.211 642.045"
     xml:space="preserve">
<g>
    <g transform = "translate(230 320)">
        <g transform = "scale(0.3 0.3) translate(100.0 100.0)">
            <polygon fill="#ffbbcc" points="0,200 200,200 200,0 0,0 "/>
            <polygon fill="#ff99aa" points="0,200 200,200 200,0 0,0 "
                transform="rotate(10.0 100.0 100.0)"/>    
        </g>
        <g transform = "scale(0.5 0.5) translate(100.0 100.0)">
            <polygon fill="#eebbcc" points="0,200 200,200 200,0 0,0 "/>
            <polygon fill="#ee99aa" points="0,200 200,200 200,0 0,0 "
                transform="rotate(10.0 100.0 100.0)"/>    
        </g>
        <g transform = "scale(0.8 0.8) translate(100.0 100.0)">
            <polygon fill="#ddbbcc" points="0,200 200,200 200,0 0,0 "/>
            <polygon fill="#dd99aa" points="0,200 200,200 200,0 0,0 "
                transform="rotate(10.0 100.0 100.0)"/>    
        </g>
    </g>

    <g transform="translate(100 200) scale(0.6 0.6)">
        <g transform = "scale(0.3 0.3) translate(100.0 100.0)">
            <polygon fill="#bbccff" points="0,200 200,200 200,0 0,0 "/>
            <polygon fill="#99aaff" points="0,200 200,200 200,0 0,0 "
                transform="rotate(10.0 100.0 100.0)"/>    
        </g>
        <g transform = "scale(0.5 0.5) translate(100.0 100.0)">
            <polygon fill="#bbccff" points="0,200 200,200 200,0 0,0 "/>
            <polygon fill="#99aaff" points="0,200 200,200 200,0 0,0 "
                transform="rotate(10.0 100.0 100.0)"/>    
        </g>
        <g transform = "scale(0.8 0.8) translate(100.0 100.0)">
            <polygon fill="#bbccff" points="0,200 200,200 200,0 0,0 "/>
            <polygon fill="#99aaff" points="0,200 200,200 200,0 0,0 "
                transform="rotate(10.0 100.0 100.0)"/>    
        </g>
    </g> 

</g>

</svg>
